<svg width="436" height="109" viewBox="0 0 436 109" fill="none" xmlns="http://www.w3.org/2000/svg">
<path d="M10.5194 101.152V62.3136C10.5194 58.6318 8.0833 56.085 3.9586 54.8393C3.64487 54.7286 3.3219 54.6363 2.98971 54.5625C2.65752 54.4702 2.32533 54.3964 1.99314 54.341C1.66095 54.2857 1.32876 54.2395 0.996571 54.2026C0.664381 54.1657 0.33219 54.138 0 54.1196C6.20089 53.8981 10.5194 50.6593 10.5194 45.9532V7.11463C10.5194 2.60238 14.9763 -0.0274662 23.5855 0.000216379L33.1914 0.0278989V3.59895H31.3089C22.8935 3.57126 21.1771 4.95539 21.1771 10.7134V45.3719C21.1771 50.1056 16.3604 53.6767 9.8273 54.1196C16.3604 54.5902 21.1771 58.1612 21.1771 62.8673V97.5535C21.1771 103.311 22.7274 104.696 31.3089 104.668H33.1914V108.239H23.5855H23.4194C14.9209 108.239 10.5194 105.609 10.5194 101.152ZM412.387 108.267L402.753 108.239V104.668H404.636C413.245 104.668 414.795 103.311 414.795 97.5535V62.8673C414.795 58.1612 419.612 54.5902 426.145 54.1196C419.612 53.6767 414.795 50.1056 414.795 45.3719V10.7134C414.795 4.92771 413.079 3.57126 404.636 3.59895H402.753V0.0278989L412.387 0.000216379C420.968 -0.0274662 425.453 2.60238 425.453 7.11463V45.9532C425.453 50.6593 429.771 53.8981 435.972 54.1196C435.64 54.138 435.308 54.1657 434.976 54.2026C434.625 54.2395 434.293 54.2857 433.979 54.341C433.647 54.3964 433.315 54.4702 432.983 54.5625C432.65 54.6363 432.327 54.7194 432.014 54.8116C427.889 56.085 425.453 58.6318 425.453 62.3136V101.152C425.453 105.609 421.051 108.267 412.553 108.267H412.387ZM377.701 86.785V60.8741H351.873V86.7573H338.004V21.4819H351.873V46.9775H377.701V21.4819H391.569V86.7573L377.701 86.785ZM310.681 86.785C290.879 86.785 280.978 75.9426 280.978 54.258V53.9535C281.181 32.3057 291.119 21.4911 310.792 21.5095H333.381V35.3785H308.024C307.082 35.3231 306.113 35.3785 305.2 35.5446C304.259 35.7107 303.345 35.9875 302.487 36.4028C301.629 36.7903 300.826 37.2886 300.079 37.8699C299.331 38.4789 298.695 39.1433 298.113 39.8908C295.936 42.9174 294.847 47.7341 294.847 54.341V55.1438C294.847 66.992 299.202 72.916 307.913 72.916H333.298V86.785H310.681ZM245.323 86.785C244.492 86.8219 243.652 86.8034 242.804 86.7296C241.973 86.6742 241.143 86.582 240.312 86.4528C239.482 86.3051 238.67 86.1206 237.876 85.8991C237.064 85.6777 236.261 85.4101 235.468 85.0963C234.859 84.8564 234.259 84.5796 233.668 84.2659C233.078 83.9521 232.506 83.6015 231.952 83.2139C231.398 82.8264 230.872 82.4204 230.374 81.9959C229.876 81.553 229.396 81.0824 228.935 80.5841C228.529 80.1227 228.141 79.6429 227.772 79.1446C227.403 78.6463 227.061 78.1296 226.748 77.5944C226.452 77.0407 226.176 76.4871 225.917 75.9334C225.677 75.3613 225.465 74.78 225.28 74.1894C225.077 73.5989 224.911 72.9991 224.782 72.3901C224.635 71.781 224.515 71.172 224.422 70.563C224.33 69.954 224.256 69.3357 224.201 68.7083C224.146 68.0808 224.118 67.4626 224.118 66.8535C224.136 66.5214 224.146 66.1984 224.146 65.8847C224.164 65.5525 224.192 65.2295 224.229 64.9158C224.247 64.602 224.284 64.2883 224.339 63.9746C224.376 63.6608 224.422 63.3379 224.478 63.0057C224.533 62.6919 224.598 62.369 224.671 62.0368C224.745 61.7046 224.838 61.3816 224.948 61.0679C225.041 60.7542 225.151 60.4404 225.28 60.1267C225.391 59.813 225.52 59.4992 225.668 59.1855C225.797 58.9087 225.945 58.6318 226.111 58.355C226.277 58.0597 226.452 57.7829 226.637 57.5245C226.803 57.2662 226.997 57.0078 227.218 56.7494C227.421 56.4911 227.633 56.2511 227.855 56.0297C228.076 55.7898 228.316 55.5683 228.575 55.3653C228.833 55.1623 229.101 54.9685 229.377 54.784C229.654 54.6179 229.94 54.461 230.236 54.3134C230.531 54.1657 230.835 54.0458 231.149 53.9535C230.54 53.6767 229.959 53.3445 229.405 52.9569C228.87 52.5878 228.362 52.1633 227.883 51.6835C227.421 51.1852 227.006 50.6593 226.637 50.1056C226.268 49.552 225.963 48.9614 225.723 48.3339C225.465 47.6326 225.234 46.9221 225.031 46.2024C224.847 45.4826 224.69 44.7537 224.561 44.0155C224.432 43.2773 224.339 42.5391 224.284 41.8008C224.229 41.0442 224.21 40.2968 224.229 39.5586C224.146 38.3128 224.229 37.0671 224.422 35.8491C224.644 34.6034 224.976 33.413 225.447 32.2504C225.917 31.1154 226.499 30.0081 227.218 28.9838C227.938 27.9873 228.768 27.0461 229.682 26.2156C230.789 25.3666 231.961 24.6192 233.198 23.9733C234.453 23.3458 235.744 22.8291 237.073 22.4231C238.402 22.0171 239.768 21.7402 241.17 21.5926C242.554 21.4265 243.939 21.3896 245.323 21.4819H277.794V35.3785H243.634C243.265 35.3785 242.905 35.4154 242.554 35.4892C242.185 35.563 241.835 35.6738 241.502 35.8214C241.17 35.9691 240.847 36.1536 240.534 36.3751C240.238 36.5965 239.971 36.8457 239.731 37.1225C239.205 37.6762 238.817 38.3128 238.54 39.0049C238.264 39.697 238.097 40.4444 238.097 41.1918C238.097 41.9393 238.208 42.6867 238.485 43.4064C238.734 44.0985 239.122 44.7352 239.62 45.3165C239.897 45.5934 240.192 45.8425 240.506 46.064C240.82 46.2854 241.152 46.47 241.502 46.6176C241.853 46.7468 242.222 46.8483 242.61 46.9221C242.979 46.9959 243.357 47.0236 243.745 47.0052H277.794V60.8741H243.634C243.265 60.8741 242.905 60.911 242.554 60.9849C242.185 61.0771 241.835 61.1971 241.502 61.3447C241.17 61.4924 240.847 61.6677 240.534 61.8707C240.238 62.0922 239.971 62.3413 239.731 62.6181C239.454 62.9134 239.214 63.2271 239.011 63.5593C238.808 63.8915 238.633 64.2422 238.485 64.6113C238.337 64.9804 238.236 65.3679 238.181 65.7739C238.107 66.1615 238.079 66.549 238.097 66.9366C238.097 67.3242 238.125 67.7117 238.181 68.0993C238.254 68.4868 238.356 68.8559 238.485 69.2066C238.633 69.5757 238.808 69.9263 239.011 70.2585C239.214 70.5722 239.454 70.8675 239.731 71.1443C239.989 71.4396 240.266 71.6888 240.561 71.8918C240.875 72.1132 241.207 72.2978 241.558 72.4454C241.89 72.6115 242.241 72.7315 242.61 72.8053C242.979 72.8607 243.357 72.8883 243.745 72.8883H277.794V86.785H245.323ZM192.421 86.785V35.3785H177.085V21.4819H220.741V35.3785H206.29V86.785H192.421ZM158.51 86.785V21.4819H172.379V86.7573L158.51 86.785ZM101.124 86.785V66.6598C101.041 65.3033 101.097 63.9469 101.29 62.6181C101.484 61.2894 101.816 59.9606 102.315 58.7149C102.785 57.4415 103.394 56.2511 104.142 55.1162C104.889 53.9812 105.747 52.9569 106.716 52.0157C107.796 51.1299 108.931 50.3548 110.149 49.6904C111.367 49.026 112.64 48.4723 113.941 48.0571C115.27 47.6142 116.627 47.3374 117.983 47.1436C119.367 46.9775 120.751 46.9221 122.108 47.0052H135.174C135.543 47.0052 135.912 46.9683 136.281 46.8944C136.65 46.8391 137.01 46.7376 137.361 46.5899C137.711 46.4423 138.034 46.2577 138.33 46.0363C138.643 45.8333 138.929 45.5934 139.188 45.3165C139.446 45.0397 139.686 44.7444 139.908 44.4307C140.111 44.117 140.277 43.7848 140.406 43.4341C140.553 43.0835 140.664 42.7236 140.738 42.3545C140.793 41.9854 140.821 41.6163 140.821 41.2472C140.821 40.8596 140.784 40.4813 140.71 40.1122C140.655 39.7431 140.553 39.3832 140.406 39.0326C140.277 38.6635 140.101 38.3221 139.88 38.0083C139.677 37.6946 139.446 37.3993 139.188 37.1225C138.948 36.8457 138.671 36.5965 138.357 36.3751C138.062 36.1721 137.748 35.9875 137.416 35.8214C137.084 35.6738 136.733 35.563 136.364 35.4892C136.014 35.4154 135.654 35.3785 135.285 35.3785H101.124V21.5095H133.596C134.408 21.4911 135.22 21.5096 136.032 21.5649C136.844 21.6203 137.647 21.7126 138.44 21.8417C139.252 21.9709 140.046 22.1462 140.821 22.3677C141.615 22.5707 142.39 22.8106 143.146 23.0875C143.774 23.3274 144.383 23.595 144.973 23.8902C145.564 24.1855 146.136 24.5085 146.69 24.8591C147.243 25.2282 147.769 25.6158 148.268 26.0218C148.784 26.4463 149.273 26.8892 149.735 27.3506C150.159 27.7935 150.565 28.2641 150.953 28.7624C151.322 29.2422 151.663 29.7497 151.977 30.2849C152.291 30.8017 152.577 31.3368 152.835 31.8905C153.094 32.4626 153.315 33.0347 153.5 33.6068C153.703 34.2158 153.878 34.8341 154.026 35.4616C154.173 36.089 154.302 36.7165 154.413 37.344C154.505 37.9714 154.579 38.6081 154.635 39.2541C154.672 39.8815 154.69 40.5182 154.69 41.1642C154.69 41.7732 154.662 42.3822 154.607 42.9912C154.57 43.6002 154.505 44.2 154.413 44.7906C154.321 45.3996 154.201 45.9994 154.053 46.5899C153.906 47.1805 153.74 47.771 153.555 48.3616C153.37 48.9337 153.149 49.5058 152.891 50.0779C152.651 50.6316 152.374 51.176 152.06 51.7112C151.746 52.2279 151.414 52.7355 151.064 53.2337C150.695 53.732 150.307 54.2026 149.901 54.6455C149.44 55.1438 148.951 55.6052 148.434 56.0297C147.935 56.4726 147.41 56.8786 146.856 57.2477C146.321 57.6353 145.758 57.9859 145.167 58.2996C144.577 58.6134 143.968 58.8994 143.34 59.1578C142.584 59.4715 141.799 59.7391 140.987 59.9606C140.194 60.2005 139.382 60.3943 138.551 60.5419C137.739 60.6711 136.918 60.7726 136.087 60.8464C135.257 60.9018 134.426 60.9203 133.596 60.9018H120.225C119.875 60.9018 119.524 60.9387 119.173 61.0125C118.823 61.0864 118.481 61.1971 118.149 61.3447C117.817 61.5108 117.512 61.7046 117.236 61.9261C116.959 62.1475 116.7 62.3967 116.46 62.6735C116.221 62.9688 116.008 63.2825 115.824 63.6147C115.639 63.9469 115.482 64.2883 115.353 64.6389C115.224 64.9896 115.132 65.3495 115.076 65.7186C115.002 66.1061 114.975 66.4845 114.993 66.8535V86.8127L101.124 86.785ZM65.5246 86.785C64.6941 86.8034 63.8636 86.785 63.0331 86.7296C62.1842 86.6742 61.3445 86.5728 60.514 86.4251C59.702 86.2775 58.89 86.0929 58.078 85.8715C57.2659 85.65 56.4632 85.3916 55.6696 85.0963C55.0606 84.838 54.4608 84.5519 53.8702 84.2382C53.2797 83.9244 52.7076 83.5738 52.1539 83.1862C51.6002 82.8172 51.0743 82.4111 50.576 81.9682C50.0777 81.5253 49.5979 81.0639 49.1365 80.5841C48.7305 80.1227 48.3429 79.6429 47.9738 79.1446C47.6047 78.6279 47.2725 78.1019 46.9773 77.5667C46.6635 77.0315 46.3867 76.4779 46.1468 75.9057C45.8884 75.3521 45.667 74.78 45.4824 74.1894C45.2979 73.5804 45.1318 72.9806 44.9841 72.3901C44.8365 71.781 44.7165 71.1628 44.6242 70.5353C44.532 69.9263 44.4582 69.3173 44.4028 68.7083C44.3659 68.0808 44.3474 67.4533 44.3474 66.8259C44.3474 66.5121 44.3567 66.1892 44.3751 65.857C44.3936 65.5432 44.412 65.2295 44.4305 64.9158C44.4674 64.602 44.5043 64.2791 44.5412 63.9469C44.5781 63.6331 44.6242 63.3194 44.6796 63.0057C44.735 62.6735 44.8088 62.3505 44.9011 62.0368C44.9749 61.7046 45.0579 61.3816 45.1502 61.0679C45.2425 60.7357 45.3532 60.4127 45.4824 60.099C45.6116 59.8037 45.7408 59.4992 45.87 59.1855C46.0176 58.8902 46.1652 58.6042 46.3129 58.3273C46.479 58.0505 46.6543 57.7829 46.8389 57.5245C47.0234 57.2477 47.2172 56.9893 47.4202 56.7494C47.6232 56.4911 47.8354 56.2419 48.0569 56.002C48.2783 55.7805 48.5183 55.5591 48.7766 55.3376C49.035 55.1346 49.3026 54.9501 49.5794 54.784C49.8563 54.5994 50.1515 54.4425 50.4653 54.3134C50.7605 54.1657 51.0651 54.0365 51.3788 53.9258C50.7698 53.6674 50.1884 53.3445 49.6348 52.9569C49.0811 52.5694 48.5736 52.1357 48.1123 51.6558C47.6324 51.176 47.2172 50.6593 46.8665 50.1056C46.4974 49.5335 46.1837 48.9429 45.9253 48.3339C45.667 47.6326 45.4363 46.9221 45.2333 46.2024C45.0487 45.4826 44.8918 44.7537 44.7627 44.0155C44.6335 43.2773 44.5412 42.5298 44.4858 41.7732C44.4305 41.035 44.412 40.2875 44.4305 39.5309C44.3751 38.3129 44.4305 37.0671 44.6242 35.8214C44.8457 34.6034 45.1779 33.413 45.6485 32.2504C46.1191 31.0877 46.7281 30.0081 47.4202 28.9838C48.1399 27.9596 48.9704 27.0184 49.8839 26.1879C50.9912 25.339 52.1724 24.6008 53.4273 23.9733C54.6638 23.3458 55.9464 22.8291 57.2752 22.4231C58.6039 22.0171 59.9696 21.731 61.3722 21.5649C62.7563 21.4173 64.1404 21.3896 65.5246 21.4819H97.9962V35.3785H63.8359C63.4668 35.36 63.107 35.397 62.7563 35.4892C62.3872 35.563 62.0366 35.6738 61.7044 35.8214C61.3722 35.9691 61.0492 36.1536 60.7355 36.3751C60.4402 36.5781 60.1726 36.818 59.9327 37.0948C59.4067 37.6485 59.0192 38.2852 58.7423 38.9772C58.4655 39.697 58.2994 40.4167 58.2994 41.1918C58.2994 41.9393 58.4102 42.6867 58.687 43.3788C58.9361 44.0708 59.3237 44.7352 59.822 45.2889C60.0803 45.5657 60.3756 45.8148 60.7078 46.0363C61.0215 46.2577 61.3537 46.4423 61.7044 46.5899C62.055 46.7376 62.4241 46.8391 62.8117 46.8944C63.1808 46.9683 63.5591 46.9959 63.9467 46.9775H97.9962V60.8741H63.8359C63.4668 60.8741 63.107 60.911 62.7563 60.9849C62.3872 61.0587 62.0366 61.1694 61.7044 61.317C61.3722 61.4647 61.0492 61.6492 60.7355 61.8707C60.4402 62.0922 60.1726 62.3413 59.9327 62.6181C59.6559 62.8949 59.416 63.1995 59.2129 63.5316C59.0099 63.8823 58.8346 64.2422 58.687 64.6113C58.5393 64.9804 58.4378 65.3587 58.3825 65.7462C58.3086 66.1338 58.281 66.5306 58.2994 66.9366C58.281 67.3242 58.3086 67.7025 58.3825 68.0716C58.4563 68.4591 58.5578 68.8375 58.687 69.2066C58.8346 69.5572 59.0099 69.8986 59.2129 70.2308C59.416 70.563 59.6559 70.8675 59.9327 71.1443C60.1911 71.4212 60.4679 71.6703 60.7632 71.8918C61.0769 72.1132 61.4091 72.2978 61.7597 72.4454C62.0919 72.5931 62.4426 72.7038 62.8117 72.7776C63.1808 72.8514 63.5591 72.8883 63.9467 72.8883H97.9962V86.7573L65.5246 86.785Z" fill="url(#paint0_radial_1315_878)"/>
<defs>
<radialGradient id="paint0_radial_1315_878" cx="0" cy="0" r="1" gradientUnits="userSpaceOnUse" gradientTransform="translate(123.469 -17.551) rotate(26.0149) scale(327.839 319.715)">
<stop stop-color="#3F8391"/>
<stop offset="1" stop-color="#13434D"/>
</radialGradient>
</defs>
</svg>
