<svg width="434" height="105" viewBox="0 0 434 105" fill="none" xmlns="http://www.w3.org/2000/svg">
<path d="M98.9278 0.696289C96.1477 0.696243 83.6744 0.840189 83.6744 0.840189V21.8496H31.1508C31.1508 21.8496 18.7696 21.8496 13.5949 30.6276C10.0147 36.0727 10.4809 41.2589 10.573 41.9957C10.4809 42.7439 10.1529 47.9359 13.7388 53.3638C18.9251 62.1475 31.1508 62.1417 31.1508 62.1417H58.7796C63.2693 62.1417 63.9428 65.5665 63.9601 67.0343C63.9428 68.4963 63.2521 71.783 58.7796 71.783C54.2151 71.783 6.25603 71.783 6.25603 71.783H0.50002C0.499974 74.6035 0.50002 87.1804 0.50002 87.1804H58.204C58.204 87.1804 70.4759 87.2264 75.616 78.4025C79.1904 72.986 78.8509 67.7653 78.7818 67.0343C78.8278 66.263 79.2077 60.9272 75.616 55.5223C70.4643 46.7041 58.204 46.7444 58.204 46.7444L30.5752 46.8883C26.1086 46.8998 25.4408 43.4577 25.3948 41.9957C25.4293 40.5221 26.0797 37.2642 30.5752 37.247C35.1513 37.2642 83.0988 37.247 83.0988 37.247H83.6744V66.7465C83.6744 66.7465 83.6399 79.1565 92.4523 84.3024C97.6558 87.7214 102.652 87.52 103.677 87.4682H120.081V72.2147H103.533C101.973 72.1053 98.9681 71.2362 98.9278 67.0343C98.9681 64.6168 98.9106 50.3074 98.9278 37.247L119.937 37.1031C119.937 34.3056 119.793 21.8496 119.793 21.8496H98.9278C98.9278 17.6247 98.9278 14.7985 98.9278 14.7985V0.696289ZM237.504 1.27189L237.648 38.1104V89.4828H252.901V70.7757L261.535 59.8393L278.515 89.7706H296.071L294.632 87.3243C294.632 87.3243 279.292 60.1904 272.472 48.0395L294.057 22.1374H274.198L252.901 47.6078V1.41579C252.901 1.41579 240.295 1.27189 237.504 1.27189ZM423.855 7.7474C418.72 7.7474 414.334 11.8745 414.357 17.2448C414.334 22.6037 418.709 26.9034 423.855 26.8861C429.075 26.8861 433.496 22.6209 433.496 17.2448C433.496 11.9148 429.127 7.7474 423.855 7.7474ZM423.855 8.89861C428.592 8.88709 432.345 12.7091 432.345 17.2448C432.345 21.9417 428.534 25.7291 423.855 25.7349C419.279 25.7292 415.509 21.9993 415.509 17.2448C415.509 12.6055 419.244 8.8928 423.855 8.89861ZM420.401 12.0644V22.2813H421.84V17.6765H423.567C425.242 17.6708 425.714 18.1197 425.869 19.6911C426.077 21.3201 426.123 21.6079 426.301 22.2813H427.74C427.377 21.251 427.303 20.3818 427.164 19.1155C426.98 17.8607 426.664 17.3369 425.582 17.1009C427.516 16.5426 427.573 14.9712 427.596 14.6546C427.573 12.0702 424.753 12.0702 423.999 12.0644H420.401ZM421.84 13.2156H423.999C424.764 13.2156 426.013 13.3422 426.013 14.9424C426.013 16.5311 424.805 16.5253 424.143 16.5253H421.84V13.2156ZM325.859 21.5618C307.048 21.5618 291.754 36.8613 291.754 55.6662C291.766 74.1775 306.484 89.1432 324.851 89.6267H347.012V74.9488H326.29H324.276C316.885 74.8049 310.346 69.0662 307.871 61.5661H359.387C359.744 59.586 359.963 57.6175 359.963 55.5223C359.94 36.7174 344.698 21.5618 325.859 21.5618ZM366.295 22.2813L366.439 87.756H381.836V37.6787H394.787C399.979 37.6786 400.727 41.4258 400.831 43.003V51.7809H416.084V42.2835C416.165 41.2301 416.337 36.2857 412.918 31.0593C407.738 22.2813 395.362 22.2813 395.362 22.2813H366.439H366.295ZM126.125 22.4252L126.413 87.8999H141.666V37.6787H154.617C159.861 37.6959 160.552 41.5755 160.661 43.1469V51.9248H175.914V42.4274C175.978 41.3683 176.174 36.4123 172.749 31.2032C167.574 22.4195 155.193 22.4252 155.193 22.4252H126.413H126.125ZM176.058 22.5691L194.046 83.7268L194.622 85.3097C194.967 86.7141 195.042 88.8439 192.463 89.0511H190.736H173.468V104.448H192.895C193.937 104.523 198.939 104.592 204.119 101.139C211.492 96.7526 213.939 86.5645 214.768 83.7268C215.746 80.3365 232.611 22.5691 232.611 22.5691C232.611 22.5691 220.414 22.5691 217.646 22.5691L204.407 69.1928L191.024 22.5691C188.238 22.5691 176.058 22.5691 176.058 22.5691ZM325.859 36.6714C333.877 36.6713 340.715 41.6158 343.558 48.6151H308.159C310.974 41.61 317.858 36.6714 325.859 36.6714Z" fill="url(#paint0_radial_1315_880)"/>
<defs>
<radialGradient id="paint0_radial_1315_880" cx="0" cy="0" r="1" gradientUnits="userSpaceOnUse" gradientTransform="translate(123.126 -16.1264) rotate(25.2212) scale(323.445 308.489)">
<stop stop-color="#3F8391"/>
<stop offset="1" stop-color="#13434D"/>
</radialGradient>
</defs>
</svg>
